<svg width="24" height="24" viewBox="0 0 24 24" fill="none" xmlns="http://www.w3.org/2000/svg">
<path d="M17.2176 17.8188C16.9475 18.0888 16.5813 18.2405 16.1994 18.2405C15.8175 18.2405 15.4512 18.0888 15.1812 17.8188L12 14.1828L8.81877 17.8176C8.68545 17.9531 8.52663 18.0609 8.35145 18.1347C8.17628 18.2085 7.98823 18.2469 7.79814 18.2477C7.60805 18.2485 7.41969 18.2116 7.24392 18.1392C7.06815 18.0668 6.90845 17.9603 6.77404 17.8259C6.63963 17.6915 6.53316 17.5318 6.46077 17.356C6.38838 17.1803 6.35151 16.9919 6.35229 16.8018C6.35306 16.6117 6.39146 16.4237 6.46528 16.2485C6.53909 16.0733 6.64686 15.9145 6.78237 15.7812L10.092 12.0012L6.78117 8.2188C6.64566 8.08549 6.53789 7.92666 6.46408 7.75149C6.39026 7.57631 6.35186 7.38826 6.35109 7.19817C6.35031 7.00808 6.38718 6.81972 6.45957 6.64395C6.53196 6.46819 6.63843 6.30849 6.77284 6.17407C6.90725 6.03966 7.06695 5.93319 7.24272 5.8608C7.41849 5.78842 7.60685 5.75155 7.79694 5.75232C7.98703 5.75309 8.17508 5.7915 8.35025 5.86531C8.52543 5.93913 8.68425 6.0469 8.81757 6.1824L12 9.8196L15.1812 6.1824C15.3145 6.0469 15.4733 5.93913 15.6485 5.86531C15.8237 5.7915 16.0117 5.75309 16.2018 5.75232C16.3919 5.75155 16.5802 5.78842 16.756 5.8608C16.9318 5.93319 17.0915 6.03966 17.2259 6.17407C17.3603 6.30849 17.4668 6.46819 17.5392 6.64395C17.6116 6.81972 17.6484 7.00808 17.6476 7.19817C17.6469 7.38826 17.6085 7.57631 17.5347 7.75149C17.4608 7.92666 17.3531 8.08549 17.2176 8.2188L13.908 12.0012L17.2176 15.7812C17.3515 15.9149 17.4577 16.0738 17.5301 16.2486C17.6026 16.4234 17.6399 16.6108 17.6399 16.8C17.6399 16.9892 17.6026 17.1766 17.5301 17.3514C17.4577 17.5262 17.3515 17.6851 17.2176 17.8188Z" fill="#D7D7D7"/>
</svg>
